<svg xmlns="http://www.w3.org/2000/svg" viewBox="0 0 512 512">
  <rect width="512" height="512" rx="96" fill="#6366f1"/>
  <rect x="120" y="80" width="200" height="260" rx="12" fill="white" opacity="0.15"/>
  <rect x="136" y="96" width="200" height="260" rx="12" fill="white"/>
  <rect x="160" y="136" width="112" height="10" rx="5" fill="#6366f1" opacity="0.35"/>
  <rect x="160" y="158" width="88" height="10" rx="5" fill="#6366f1" opacity="0.35"/>
  <rect x="160" y="180" width="100" height="10" rx="5" fill="#6366f1" opacity="0.35"/>
  <rect x="160" y="202" width="72" height="10" rx="5" fill="#6366f1" opacity="0.35"/>
  <path d="M244 234 L244 312 L304 312 L304 254 L284 234 Z" fill="#6366f1" opacity="0.12" rx="6"/>
  <path d="M244 234 L284 234 L284 254 L304 254" fill="none" stroke="#6366f1" stroke-width="6" stroke-opacity="0.4" stroke-linecap="round"/>
  <path d="M244 234 L244 312 L304 312 L304 254 L284 234 Z" fill="none" stroke="#6366f1" stroke-width="6" stroke-opacity="0.4" rx="4"/>
  <circle cx="370" cy="370" r="90" fill="#4f46e5"/>
  <path d="M340 370 L370 400 L420 340" stroke="white" stroke-width="18" stroke-linecap="round" stroke-linejoin="round" fill="none"/>
</svg>
